# xmcd
#
# Track frame offsets: 
#        150
#        21590
#        39140
#        58292
#        78198
#        99399
#        114137
#        134248
#        151024
#        168626
#        190393
#        209438
#        228230
#        247989
#
# Disc length: 3555 seconds
#
# Revision: 1
# Processed by: cddbd v1.5.1PL0 Copyright (c) Steve Scherf et al.
# Submitted via: ExactAudioCopy v0.95a5
#
DISCID=b60de10e
DTITLE=Bandari - One Day in Spring
DYEAR=1900
DGENRE=New Age
TTITLE0=One Day in Spring
TTITLE1=The Miracle of Your Eyes
TTITLE2=Morning Air
TTITLE3=Breath of the Wind
TTITLE4=Fairyland
TTITLE5=Beatrix
TTITLE6=Mountain Stream
TTITLE7=Snowdream
TTITLE8=Windmills
TTITLE9=Heaven's Gate
TTITLE10=Earth Melody
TTITLE11=My Song for You
TTITLE12=Melody of Hope
TTITLE13=Nebula
EXTD=
EXTT0=
EXTT1=
EXTT2=
EXTT3=
EXTT4=
EXTT5=
EXTT6=
EXTT7=
EXTT8=
EXTT9=
EXTT10=
EXTT11=
EXTT12=
EXTT13=
PLAYORDER=
